PathFileType	4	(X/Y/Z)	 s07c0401.trc
DataRate	CameraRate	NumFrames	NumMarkers	Units	OrigDataRate	OrigDataStartFrame	OrigNumFrames
200	200	6	48	mm	200	1501	2000
Frame#	Time	racr			lacr			c7			jug			rlel			rdr			llel			ldr			s2			lic			ric			lasi			rasi			rpsi			lpsi			rgt			lgt			rth1			rth2			rth3			rth4			rlfc			rmfc			rsh1			rsh2			rsh3			rsh4			rlmal			rcal			rtoe			rmt5			lth1			lth2			lth4			lth3			llfc			lmfc			lsh1			lsh2			lsh3			lsh4			llmal			lcal			ltoe			lmt5			SBIKE			LBIKE			RBIKE			
		X1	Y1	Z1	X2	Y2	Z2	X3	Y3	Z3	X4	Y4	Z4	X5	Y5	Z5	X6	Y6	Z6	X7	Y7	Z7	X8	Y8	Z8	X9	Y9	Z9	X10	Y10	Z10	X11	Y11	Z11	X12	Y12	Z12	X13	Y13	Z13	X14	Y14	Z14	X15	Y15	Z15	X16	Y16	Z16	X17	Y17	Z17	X18	Y18	Z18	X19	Y19	Z19	X20	Y20	Z20	X21	Y21	Z21	X22	Y22	Z22	X23	Y23	Z23	X24	Y24	Z24	X25	Y25	Z25	X26	Y26	Z26	X27	Y27	Z27	X28	Y28	Z28	X29	Y29	Z29	X30	Y30	Z30	X31	Y31	Z31	X32	Y32	Z32	X33	Y33	Z33	X34	Y34	Z34	X35	Y35	Z35	X36	Y36	Z36	X37	Y37	Z37	X38	Y38	Z38	X39	Y39	Z39	X40	Y40	Z40	X41	Y41	Z41	X42	Y42	Z42	X43	Y43	Z43	X44	Y44	Z44	X45	Y45	Z45	X46	Y46	Z46	X47	Y47	Z47	X48	Y48	Z48	
1501	7.5050	794.468922	1348.133975	-85.447277	793.464562	1363.844471	-414.734364	801.808790	1414.119973	-246.996364	724.907747	1280.386981	-260.324205	516.660930	1146.163011	40.841056	697.429379	945.933671	-38.808059	512.816070	1155.476195	-504.276660	692.787876	945.374129	-419.141613	193.656070	1301.520870	-190.973390	328.512717	1339.726304	-343.853919	393.225957	1284.356811	-75.309680	348.615857	1259.506920	-344.123059	396.395749	1232.280276	-99.916121	240.661770	1326.178138	-144.999910	229.572659	1349.770519	-249.346771	317.803992	1163.351078	-36.605884	252.527530	1201.861219	-390.161445	381.236490	1024.058321	-52.110369	421.348514	948.046618	-67.724517	432.580628	864.838701	-69.738719	454.026467	961.295646	-89.380266	432.127901	721.203567	-98.925092	409.060973	713.283855	-201.015003	326.185774	623.843378	-65.080811	277.386161	550.600288	-80.000491	202.528951	507.218471	-69.069875	286.099970	542.279339	-119.290206	98.383584	417.782646	-64.416200	38.331204	464.349329	-96.305190	101.307080	181.535054	-125.447752	51.875337	243.562566	-51.521691	326.625828	1098.601389	-404.110297	401.362942	1052.504804	-413.734433	428.295862	1076.094667	-406.617745	443.306294	973.706792	-414.471486	546.928756	826.977880	-392.530479	543.086701	808.007794	-294.373479	455.481535	706.183477	-409.347507	425.721673	627.533567	-388.052593	353.229642	571.532390	-392.315951	429.647807	628.908287	-346.951516	265.406667	470.731849	-390.036971	186.228703	448.478888	-355.717725	462.075122	360.623800	-356.655048	377.578176	355.332481	-421.076121	-258.810697	979.176820	-231.444537	-75.973432	83.678783	-435.527322	-81.742535	80.147077	-38.090621	
1502	7.5100	794.223014	1348.891447	-85.254254	793.882193	1361.307081	-415.027315	801.976472	1413.386545	-247.355784	725.158924	1279.530024	-259.557708	516.647355	1146.299764	40.498765	697.521885	945.622241	-38.369359	511.903352	1154.446007	-504.822612	692.485555	945.356506	-419.113725	194.423802	1301.174723	-189.943695	330.785110	1342.879875	-356.244127	394.032753	1284.908378	-75.380162	347.904815	1258.540395	-344.315797	397.248648	1232.891712	-100.222194	241.104695	1326.116303	-144.198346	229.552484	1349.322410	-248.099826	319.989355	1164.126452	-35.852533	251.027955	1200.606954	-388.943219	385.453778	1026.031599	-51.917314	426.432789	950.464137	-68.145328	438.886093	867.505583	-70.886569	459.320155	964.479846	-89.358412	438.904174	723.610744	-100.297388	414.972645	716.063924	-202.723981	332.637553	626.972124	-66.412109	281.801085	555.097525	-81.221358	205.978322	513.421587	-69.585384	289.621065	546.937048	-120.748107	99.906512	426.496073	-64.389218	41.030241	474.257399	-96.108206	98.017339	190.177322	-125.473536	49.696667	253.170432	-51.517420	323.451467	1096.061516	-403.542634	397.215844	1048.642716	-414.215318	424.688439	1071.780840	-407.217932	437.845594	969.085700	-414.549114	540.172254	821.814842	-393.372479	538.319494	802.420078	-295.234856	450.722943	699.936972	-410.399292	422.845392	620.402842	-389.170217	351.649420	562.945498	-393.359082	427.007745	621.728397	-348.118949	265.037316	459.992274	-391.493463	187.092930	436.727194	-356.170024	463.452765	350.343544	-356.751874	379.034192	344.424668	-421.239759	-258.762140	979.154167	-231.411761	-75.932844	83.624329	-435.559024	-81.731631	80.114298	-38.079873	
1503	7.5150	794.029784	1349.863226	-84.960299	794.311343	1358.982276	-415.227632	802.157016	1412.676734	-247.654414	725.633978	1278.487186	-258.630632	516.768157	1146.373276	39.952922	697.636012	945.302168	-38.148445	511.183174	1153.423881	-505.355561	692.251224	945.296749	-419.175813	194.787014	1300.598920	-188.893175	330.291421	1341.507588	-356.534804	394.819068	1285.168688	-75.401420	347.231289	1257.338554	-344.584802	398.071267	1233.322328	-100.435903	242.101285	1325.962768	-143.920890	229.677000	1348.615612	-248.280459	321.835998	1164.638087	-35.170136	249.684558	1199.057866	-387.805628	388.887868	1027.419261	-51.614724	430.947572	952.585443	-68.471407	444.317599	869.763139	-71.614248	463.680614	967.142403	-89.310682	445.385464	725.645273	-101.645438	420.245105	718.726959	-204.207264	338.017107	630.491024	-67.428119	284.929141	560.089751	-82.370981	208.337492	520.419955	-70.090468	292.208431	551.940083	-121.980098	100.325545	435.976039	-64.340413	42.204364	484.616797	-95.893581	96.137693	199.819163	-125.316981	48.283480	263.223138	-51.335615	320.128942	1093.075353	-402.830152	393.417370	1044.581313	-414.885516	420.887913	1067.121485	-407.844024	432.204716	964.113020	-414.464222	533.035122	816.481817	-394.400783	531.211308	796.573408	-296.633902	445.720394	693.367334	-411.221689	418.118487	613.627073	-391.251608	349.999805	554.231979	-394.148434	424.006834	614.438384	-349.042436	266.248982	447.709243	-389.958487	187.598411	425.296454	-356.825381	464.216009	340.008853	-356.853299	379.797034	333.453051	-421.275159	-258.808617	979.101830	-231.340941	-75.928270	83.617974	-435.549437	-81.783004	79.977442	-38.077450	
1504	7.5200	793.962559	1351.064735	-84.587088	794.791707	1356.716846	-415.389421	802.357775	1412.100667	-247.775403	726.162748	1277.796295	-257.810910	517.062548	1146.461600	39.273889	697.777208	944.877971	-38.526761	510.190974	1152.165492	-505.427337	692.111539	945.173940	-419.361393	195.170531	1299.761649	-188.138357	329.920973	1339.785154	-356.695393	395.558893	1285.199351	-75.483620	346.826696	1255.845533	-344.758294	398.722309	1233.307307	-100.548576	242.739400	1325.545520	-143.559036	229.728436	1347.604342	-247.893915	323.479853	1164.942886	-34.454038	248.584377	1197.328208	-386.848832	391.547596	1028.579413	-51.397652	434.921119	954.413453	-68.701906	448.895828	871.679717	-71.922211	467.019512	969.257875	-89.279350	451.877818	727.236603	-103.149663	425.190368	721.257524	-205.384469	342.663106	634.539686	-68.320901	287.406843	565.886384	-83.379829	209.793297	528.398869	-70.742113	294.327679	557.376506	-123.003176	100.083005	446.090688	-64.466901	42.249083	495.287326	-95.875594	95.479250	210.176713	-124.913422	47.402160	274.017435	-51.140078	316.935650	1089.910702	-402.189091	388.537325	1039.578001	-413.735382	416.758315	1062.072037	-409.159157	426.427945	958.759481	-414.175527	525.847078	810.452866	-394.764045	524.616630	790.491580	-297.389572	440.517155	686.561087	-411.673922	414.342115	606.215652	-391.916857	347.691923	545.692084	-395.493773	421.807573	606.426696	-350.381635	263.331673	438.688709	-392.113384	187.564648	413.747900	-356.947976	464.499385	329.696255	-357.198441	380.060490	322.389973	-421.209032	-258.910374	979.006533	-231.224749	-75.956144	83.583516	-435.552316	-81.809483	79.871404	-38.040488	
1505	7.5250	794.006000	1352.519085	-84.103193	795.292292	1354.741391	-415.410064	802.575536	1411.708075	-247.913919	726.981517	1276.840106	-256.762170	517.578919	1146.610221	38.465725	697.843163	944.398518	-39.334240	509.757330	1151.183667	-505.968041	692.048357	944.947309	-419.596326	195.540225	1298.953104	-187.459344	329.720961	1337.826636	-357.038118	396.253475	1285.029770	-75.560008	346.526721	1254.070527	-344.866231	399.144415	1233.055445	-100.649078	243.269828	1324.851612	-143.342093	229.836471	1346.353034	-247.772599	324.780283	1164.928124	-33.786854	247.572130	1195.230832	-385.830220	393.616864	1029.303268	-51.268306	438.414312	955.970860	-68.834043	452.997718	873.084636	-71.756501	469.557589	970.863446	-89.448122	457.805090	729.026385	-103.848467	430.076709	723.566340	-206.224169	346.738995	639.046159	-69.203698	289.636238	572.047175	-84.304378	211.545189	536.496005	-71.272522	296.527249	562.949685	-124.130895	99.473304	456.926304	-64.726529	41.654748	506.165808	-96.092806	95.890384	221.226667	-124.664567	47.015818	285.012289	-50.843821	313.854335	1086.512476	-401.580704	384.294886	1034.725571	-413.420592	413.204106	1056.768445	-409.473794	420.594131	953.127091	-413.747334	518.338550	804.148385	-394.903055	517.866419	784.049555	-298.019361	434.902980	679.038067	-411.973691	410.337168	598.358494	-392.351253	345.118874	536.424297	-396.112747	418.193802	598.744900	-350.667417	262.684840	427.952175	-391.981261	186.857366	402.609367	-356.400722	464.084445	318.208749	-356.519617	379.613888	311.425558	-421.095409	-259.039363	978.890582	-231.082818	-75.989478	83.552823	-435.534258	-81.880042	79.811688	-38.035877	
1506	7.5300	794.046636	1354.108747	-83.683722	795.850793	1352.951431	-415.252014	802.818039	1411.455122	-247.982117	727.892487	1276.272827	-255.830564	518.326958	1146.794775	37.598041	697.745263	943.808350	-40.704515	509.422671	1150.334840	-506.524251	692.009518	944.657204	-419.939408	195.889507	1297.785233	-187.155127	329.708129	1335.635143	-357.454003	396.827067	1284.695900	-75.700214	346.405404	1252.083110	-345.125098	398.947993	1232.397042	-101.421099	243.815199	1323.980963	-143.328440	230.136482	1345.027059	-247.565120	325.847704	1164.643783	-33.124378	246.652453	1192.865753	-384.916353	395.169002	1029.745363	-51.078706	441.515994	957.300487	-68.865339	456.167168	874.115453	-71.526946	471.443077	971.974121	-89.714834	464.445882	730.369896	-104.642923	435.319280	725.571970	-206.734033	350.599272	644.002078	-70.075948	291.861661	578.547180	-85.133894	212.840205	545.012150	-72.120197	298.675738	568.748002	-124.801083	98.818328	468.110703	-65.229881	40.704872	517.287846	-96.435981	97.466503	232.782388	-124.333201	47.691566	296.096555	-50.636422	310.924591	1082.919910	-401.050990	380.062167	1029.513338	-413.011081	409.499356	1050.977626	-409.343093	414.686019	947.228479	-413.143290	510.515510	797.454879	-394.904305	510.521700	777.412910	-298.494532	428.687123	671.517919	-411.956415	405.878679	590.267285	-392.697852	341.668597	527.041956	-395.763465	413.488183	590.373781	-351.226904	263.642496	415.631357	-390.222599	185.362797	392.069047	-356.799482	462.996045	307.233246	-356.470265	378.543048	300.496967	-420.849286	-259.113327	978.880352	-231.144821	-76.027220	83.527412	-435.539835	-81.899325	79.707060	-38.017079	
